<svg viewBox="0 0 1000.2883 1004.1441" xmlns="http://www.w3.org/2000/svg"><path d="m991.144 441.144c-9-6-22-4-29 5-15 21-62 75-103 75-40 0-88-54-103-75-8-11-26-11-34 0-15 21-62 75-103 75s-87-54-102-75c-4-5-11-9-17-9-7 0-13 4-17 9-15 21-63 75-103 75s-88-54-103-75c-4-5-10-9-17-9-6 0-13 4-17 9-15 21-62 75-102 75-41 0-88-54-103-75-7-9-20-11-29-5-10 7-12 20-5 29 7 10 68 92 137 92 49 0 95-43 119-70 24 27 70 70 120 70s96-43 120-71c24 28 70 71 119 71 50 0 96-43 120-71 24 28 70 71 120 71 69 0 130-82 137-92 7-9 5-22-5-29z"/></svg>